<?xml version="1.0" encoding="UTF-8"?>
<svg width="274px" height="233px" viewBox="0 0 274 233" version="1.1" xmlns="http://www.w3.org/2000/svg" xmlns:xlink="http://www.w3.org/1999/xlink">
    <!-- Generator: Sketch 61.1 (89650) - https://sketch.com -->
    <title>Group 2</title>
    <desc>Created with Sketch.</desc>
    <g id="Page-1" stroke="none" stroke-width="1" fill="none" fill-rule="evenodd">
        <g id="Group-2" fill="#FFFFFF" fill-rule="nonzero">
            <g id="Group">
                <rect id="Rectangle" x="47.49" y="53.28" width="116.77" height="17.96" rx="8.98"></rect>
                <rect id="Rectangle" x="47.49" y="100.03" width="116.77" height="17.96" rx="8.98"></rect>
                <rect id="Rectangle" x="47.49" y="146.77" width="73.03" height="17.96" rx="8.98"></rect>
                <g id="Path-5">
                    <g id="Path-4">
                        <g id="Path-3">
                            <g id="Path-2">
                                <path d="M219.12,47.62 L219.12,22.27 C219.108973,9.9751889 209.144811,0.01102674 196.85,0 L22.27,0 C9.9751889,0.01102674 0.01102674,9.9751889 0,22.27 L0,210.21 C0.01102674,222.504811 9.9751889,232.468973 22.27,232.48 L196.85,232.48 C209.144811,232.468973 219.108973,222.504811 219.12,210.21 L219.12,152.91 L200.12,177.22 L200.12,210.22 C200.12,212.025971 198.655971,213.49 196.85,213.49 L22.27,213.49 C21.400186,213.492685 20.5653684,213.147654 19.9512538,212.531662 C19.3371392,211.915669 18.9946595,211.079802 19,210.21 L19,22.27 C18.9973331,21.4019273 19.3409935,20.5686395 19.9548165,19.9548165 C20.5686395,19.3409935 21.4019273,18.9973331 22.27,19 L196.85,19 C198.655971,19 200.12,20.4640289 200.12,22.27 L200.12,69.56 L219.12,47.62 Z" id="Path"></path>
                            </g>
                        </g>
                    </g>
                </g>
                <path d="M148,160.51 C147.555761,161.087569 147.291434,161.783166 147.24,162.51 L145.3,188.63 C145.219677,189.715036 145.63028,190.778888 146.418745,191.528607 C147.207209,192.278326 148.290384,192.634848 149.37,192.5 C149.608165,192.470599 149.842712,192.416988 150.07,192.34 L175,184.06 C175.679271,183.828264 176.276742,183.404476 176.72,182.84 L254.5,83.35 L225.84,61 L148,160.51 Z" id="Path"></path>
                <path d="M266.75,38.07 C258.84154,31.9128073 247.440896,33.3222276 241.27,41.22 L232.53,52.43 L261.16,74.76 L269.9,63.55 C276.062943,55.6431273 274.652963,44.2379559 266.75,38.07 L266.75,38.07 Z" id="Path"></path>
            </g>
        </g>
    </g>
</svg>